<svg id="fajnuklid-logo-dark" xmlns="http://www.w3.org/2000/svg" viewBox="0 0 452.68 86.1"><defs><style>.cls-1{fill:none;stroke:#162438;stroke-linecap:round;stroke-miterlimit:10;stroke-width:11px;}.cls-2{fill:#162438;}</style></defs><path class="cls-1" d="M261.89,474.7c-.86,1.21-11.76,17.2-4.58,35.56a37,37,0,0,0,32.21,23.52c15.37.81,31-8.36,36.19-23.71,6.41-18.8-6.88-34.65-7.49-35.35" transform="translate(-249.38 -453.23)"/><path class="cls-2" d="M291.53,500.2,305,479.54a16.32,16.32,0,0,0,.35-17.66c-3.47-5.44-9.44-8.9-15.54-8.64a17.8,17.8,0,0,0-13.8,8.35,16.44,16.44,0,0,0,.23,17.87l13.61,20.74a1,1,0,0,0,1.39.25,1,1,0,0,0,.25-.25" transform="translate(-249.38 -453.23)"/><path class="cls-2" d="M365.46,516a1.35,1.35,0,0,1-.42-1V476a1.52,1.52,0,0,1,.39-1.08,1.33,1.33,0,0,1,1-.42h26A1.44,1.44,0,0,1,394,476v4.19a1.36,1.36,0,0,1-.42,1.05,1.52,1.52,0,0,1-1.08.39H373.24V493h18a1.44,1.44,0,0,1,1.5,1.5v4.19a1.36,1.36,0,0,1-.42,1.05,1.52,1.52,0,0,1-1.08.39h-18V515a1.34,1.34,0,0,1-.42,1,1.52,1.52,0,0,1-1.07.39h-5.28A1.35,1.35,0,0,1,365.46,516Z" transform="translate(-249.38 -453.23)"/><path class="cls-2" d="M395.14,516.08a1.17,1.17,0,0,1-.39-.89l.12-.54L409.31,476a1.93,1.93,0,0,1,2.09-1.5h6.53A2.06,2.06,0,0,1,420,476l14.44,38.64a2.34,2.34,0,0,1,0,.54,1.21,1.21,0,0,1-.35.89,1.15,1.15,0,0,1-.84.36h-5.21a1.79,1.79,0,0,1-1.2-.36,1.66,1.66,0,0,1-.54-.77L423.56,508H405.77L403,515.31a1.74,1.74,0,0,1-1.74,1.13H396A1.25,1.25,0,0,1,395.14,516.08Zm26.33-15-6.83-18.51-6.77,18.51Z" transform="translate(-249.38 -453.23)"/><path class="cls-2" d="M445,515.54a13.37,13.37,0,0,1-5.9-4.49,12.42,12.42,0,0,1-2.34-7.25,1.3,1.3,0,0,1,.36-.92,1.17,1.17,0,0,1,.9-.39h5.69a1.84,1.84,0,0,1,1.8,1.55,6.48,6.48,0,0,0,2.48,4.62,8.89,8.89,0,0,0,5.31,1.49,7.06,7.06,0,0,0,5.78-2.45,10.57,10.57,0,0,0,2-6.83V481.58h-20.3a1.43,1.43,0,0,1-1.44-1.44V476a1.36,1.36,0,0,1,.42-1.05,1.44,1.44,0,0,1,1-.39h27.37a1.44,1.44,0,0,1,1.5,1.5v25.1a17.05,17.05,0,0,1-2,8.56,13.45,13.45,0,0,1-5.78,5.49A19.2,19.2,0,0,1,453.1,517,21.31,21.31,0,0,1,445,515.54Z" transform="translate(-249.38 -453.23)"/><path class="cls-2" d="M479,516a1.35,1.35,0,0,1-.42-1V476a1.52,1.52,0,0,1,.39-1.08,1.36,1.36,0,0,1,1.05-.42h4.61a1.79,1.79,0,0,1,1.08.27,3.11,3.11,0,0,1,.66.69l17.25,26.84V476a1.52,1.52,0,0,1,.39-1.08,1.36,1.36,0,0,1,1-.42h5a1.44,1.44,0,0,1,1.5,1.5V515a1.42,1.42,0,0,1-.42,1.07,1.39,1.39,0,0,1-1,.42h-4.67a2.14,2.14,0,0,1-1.74-1l-17.19-26.24V515a1.34,1.34,0,0,1-.42,1,1.52,1.52,0,0,1-1.08.39h-5A1.39,1.39,0,0,1,479,516Z" transform="translate(-249.38 -453.23)"/><path class="cls-2" d="M538.82,512.91q-4.5-4.14-4.5-12.52V476a1.52,1.52,0,0,1,.39-1.08,1.36,1.36,0,0,1,1-.42h5.45a1.36,1.36,0,0,1,1,.42,1.52,1.52,0,0,1,.39,1.08v24.38q0,4.78,2.28,7.22a9.82,9.82,0,0,0,12.91,0q2.24-2.43,2.24-7.22V476a1.44,1.44,0,0,1,1.5-1.5H567a1.36,1.36,0,0,1,1,.42,1.52,1.52,0,0,1,.39,1.08v24.38q0,8.39-4.46,12.52T551.4,517Q543.3,517,538.82,512.91Zm8.92-42.35a1.06,1.06,0,0,1,.3-.78l4.85-5.93a3.91,3.91,0,0,1,1-.87,2.75,2.75,0,0,1,1.2-.21h6.41a1,1,0,0,1,1.14,1.14,1,1,0,0,1-.3.72l-7.43,6.11a4.21,4.21,0,0,1-1,.6,3,3,0,0,1-1.11.18H548.7A.85.85,0,0,1,547.74,470.56Z" transform="translate(-249.38 -453.23)"/><path class="cls-2" d="M577.81,516a1.35,1.35,0,0,1-.42-1V476a1.52,1.52,0,0,1,.39-1.08,1.36,1.36,0,0,1,1.05-.42h5.27a1.44,1.44,0,0,1,1.5,1.5v14l13.54-14.44a2.7,2.7,0,0,1,2.34-1.08h5.93a1.23,1.23,0,0,1,.86.36,1.17,1.17,0,0,1,.39.9,1.12,1.12,0,0,1-.24.72L592,494.58l17.61,19.83a1.19,1.19,0,0,1,.3.78,1.17,1.17,0,0,1-.39.89,1.25,1.25,0,0,1-.87.36h-6.17a2.81,2.81,0,0,1-2.33-1.07l-14.5-15.88V515a1.34,1.34,0,0,1-.42,1,1.52,1.52,0,0,1-1.08.39h-5.27A1.39,1.39,0,0,1,577.81,516Z" transform="translate(-249.38 -453.23)"/><path class="cls-2" d="M615.67,516a1.35,1.35,0,0,1-.42-1V476a1.36,1.36,0,0,1,.42-1.05,1.44,1.44,0,0,1,1-.39h5.57A1.34,1.34,0,0,1,623.7,476v33.36h19a1.5,1.5,0,0,1,1.08.42,1.46,1.46,0,0,1,.42,1.08V515a1.34,1.34,0,0,1-.42,1,1.52,1.52,0,0,1-1.08.39h-26A1.39,1.39,0,0,1,615.67,516Z" transform="translate(-249.38 -453.23)"/><path class="cls-2" d="M650.42,516a1.35,1.35,0,0,1-.42-1V476a1.36,1.36,0,0,1,.42-1.05,1.44,1.44,0,0,1,1-.39h5.64A1.34,1.34,0,0,1,658.5,476V515a1.4,1.4,0,0,1-.39,1,1.36,1.36,0,0,1-1,.42h-5.64A1.38,1.38,0,0,1,650.42,516Z" transform="translate(-249.38 -453.23)"/><path class="cls-2" d="M668.33,516a1.35,1.35,0,0,1-.42-1V476a1.52,1.52,0,0,1,.39-1.08,1.36,1.36,0,0,1,1.05-.42H684q17.61,0,18,16.29.12,3.48.12,4.68c0,.76,0,2.29-.12,4.61q-.24,8.39-4.49,12.37t-13.18,4H669.35A1.39,1.39,0,0,1,668.33,516ZM684,509.55c3.36,0,5.77-.74,7.25-2.24s2.26-4,2.34-7.4c.08-2.4.12-3.89.12-4.49s0-2.12-.12-4.44c-.08-3.27-.91-5.69-2.49-7.24s-4-2.34-7.4-2.34h-7.43v28.15Z" transform="translate(-249.38 -453.23)"/></svg>
